<svg id="Layer_1" data-name="Layer 1" xmlns="http://www.w3.org/2000/svg" viewBox="0 0 36 36"><defs><style>.cls-1{fill:#afc267;}.cls-2{fill:#fff;}</style></defs><title>Artboard 16 copy 7</title><circle class="cls-1" cx="18" cy="18.14" r="18"/><path class="cls-2" d="M18.55,30l0-10.28H15.89a.64.64,0,0,1-.63-.63V15.8a.64.64,0,0,1,.63-.64h2.67V12c0-3.25,1.74-5.21,4.39-5.64a6.59,6.59,0,0,1,1.19-.1h2.72a.63.63,0,0,1,.63.63v2.8a.63.63,0,0,1-.63.63H25.18c-1.8,0-2.15.85-2.15,2.11v2.77h4a.64.64,0,0,1,.63.71l-.39,3.31a.64.64,0,0,1-.63.56H23.05L23,30H18.55Z"/></svg>