<svg id="Layer_1" data-name="Layer 1" xmlns="http://www.w3.org/2000/svg" viewBox="0 0 36 36"><defs><style>.cls-1{fill:#afc267;}</style></defs><title>Artboard 16 copy 3</title><path class="cls-1" d="M31.15,0H4.85A4.85,4.85,0,0,0,0,4.85v26.3A4.85,4.85,0,0,0,4.85,36h13l0-12.86H14.5a.8.8,0,0,1-.79-.79V18.2a.78.78,0,0,1,.78-.79h3.34v-4c0-4.06,2.18-6.51,5.5-7.06a8.9,8.9,0,0,1,1.49-.12h3.4A.79.79,0,0,1,29,7v3.5a.79.79,0,0,1-.79.79H26.12c-2.25,0-2.69,1.07-2.69,2.64v3.47h5a.78.78,0,0,1,.78.88l-.49,4.15a.79.79,0,0,1-.78.7H23.45l0,12.86h7.72A4.85,4.85,0,0,0,36,31.15h0V4.85A4.85,4.85,0,0,0,31.15,0Z"/></svg>