<svg id="Layer_1" data-name="Layer 1" xmlns="http://www.w3.org/2000/svg" viewBox="0 0 36 36"><defs><style>.cls-1{fill:#fff;}</style></defs><title>Artboard 16 copy 10</title><path class="cls-1" d="M18,.14a18,18,0,1,0,18,18A18,18,0,0,0,18,.14Zm9.23,19a.64.64,0,0,1-.63.56H23.05L23,30H18.55l0-10.28H15.89a.64.64,0,0,1-.63-.63V15.8a.64.64,0,0,1,.63-.64h2.67V12c0-3.25,1.73-5.21,4.39-5.64a6.59,6.59,0,0,1,1.19-.1h2.72a.63.63,0,0,1,.63.63v2.8a.63.63,0,0,1-.63.63H25.18c-1.8,0-2.15.85-2.15,2.11v2.77h4a.64.64,0,0,1,.63.71Z"/></svg>