<svg id="Layer_1" data-name="Layer 1" xmlns="http://www.w3.org/2000/svg" viewBox="0 0 36 36"><defs><style>.cls-1{fill:#afc267;}.cls-2{fill:#fff;}</style></defs><title>Artboard 16 copy 6</title><circle class="cls-1" cx="18" cy="18.14" r="18"/><path class="cls-2" d="M24.46,12.83a1.25,1.25,0,1,1-1.24-1.24,1.25,1.25,0,0,1,1.24,1.24Zm0,0"/><path class="cls-2" d="M26.69,10.12a6,6,0,0,0-4.62-2.18H13.93a6,6,0,0,0-6,6v8.14a6,6,0,0,0,6,6h8.14a6,6,0,0,0,6-6V13.93A6,6,0,0,0,26.69,10.12Zm-.65,12a4,4,0,0,1-4,4H13.93a4,4,0,0,1-4-4V13.93a4,4,0,0,1,4-4h8.14a4,4,0,0,1,4,4Z"/><path class="cls-2" d="M18,12.79h0a5.2,5.2,0,0,0,0,10.4h0a5.21,5.21,0,0,0,0-10.42Zm3.12,5.85a3.2,3.2,0,1,1,.06-.64A3.39,3.39,0,0,1,21.12,18.64Z"/></svg>