<svg id="Layer_1" data-name="Layer 1" xmlns="http://www.w3.org/2000/svg" viewBox="0 0 36 36"><defs><style>.cls-1{fill:#fff;}</style></defs><title>Artboard 16</title><path class="cls-1" d="M29.56,8.76a2.23,2.23,0,1,1-2.23-2.23,2.23,2.23,0,0,1,2.23,2.23Zm0,0"/><path class="cls-1" d="M33.55,3.91A10.7,10.7,0,0,0,25.28,0H10.72A10.73,10.73,0,0,0,0,10.72V25.28A10.73,10.73,0,0,0,10.72,36H25.28A10.73,10.73,0,0,0,36,25.28V10.72A10.66,10.66,0,0,0,33.55,3.91ZM32.38,25.28a7.1,7.1,0,0,1-7.1,7.1H10.72a7.1,7.1,0,0,1-7.1-7.1V10.72a7.1,7.1,0,0,1,7.1-7.1H25.28a7.1,7.1,0,0,1,7.1,7.1Z"/><path class="cls-1" d="M18,8.69h-.07a9.31,9.31,0,0,0,0,18.62H18A9.31,9.31,0,0,0,18,8.69Zm5.57,10.46A5.68,5.68,0,1,1,23.69,18,5.47,5.47,0,0,1,23.57,19.15Z"/></svg>