<svg id="Layer_1" data-name="Layer 1" xmlns="http://www.w3.org/2000/svg" viewBox="0 0 36 36"><defs><style>.cls-1{fill:#fff;}</style></defs><title>Artboard 16 copy 9</title><path class="cls-1" d="M18,14.82a3.18,3.18,0,1,0,3.12,3.82,3.39,3.39,0,0,0,.06-.64A3.18,3.18,0,0,0,18,14.82Z"/><path class="cls-1" d="M18,.14a18,18,0,1,0,18,18A18,18,0,0,0,18,.14ZM28.06,22.07a6,6,0,0,1-6,6H13.93a6,6,0,0,1-6-6V13.93a6,6,0,0,1,6-6h8.14a6,6,0,0,1,6,6Z"/><path class="cls-1" d="M22.07,10H13.93a4,4,0,0,0-4,4v8.14a4,4,0,0,0,4,4h8.14a4,4,0,0,0,4-4V13.93A4,4,0,0,0,22.07,10ZM18,23.21h0a5.2,5.2,0,0,1,0-10.4h0a5.21,5.21,0,0,1,0,10.42Zm5.22-9.13a1.25,1.25,0,1,1,1.24-1.25A1.25,1.25,0,0,1,23.22,14.08Z"/></svg>