<svg id="Layer_1" data-name="Layer 1" xmlns="http://www.w3.org/2000/svg" viewBox="0 0 36 36"><defs><style>.cls-1{fill:#afc267;}.cls-2{fill:#fff;}</style></defs><title>Artboard 16 copy 8</title><circle class="cls-1" cx="18" cy="18.14" r="18"/><path class="cls-2" d="M28,12.85a8,8,0,0,1-.56.74,8.26,8.26,0,0,1-1.15,1.14A.66.66,0,0,0,26,15a.73.73,0,0,0-.08.33v.06a12.23,12.23,0,0,1-3.05,8,11.79,11.79,0,0,1-1.54,1.46,10.68,10.68,0,0,1-1.62,1.05h0l-.51.25-.07,0-.23.11h0a12.1,12.1,0,0,1-4.76.94,11.78,11.78,0,0,1-5.94-1.6A.35.35,0,0,1,8,25.22.33.33,0,0,1,8.35,25h.49a7.88,7.88,0,0,0,4.45-1.35,4.34,4.34,0,0,1-3.41-2.93.22.22,0,0,1,.26-.29,4.51,4.51,0,0,0,.73.07H11a4.31,4.31,0,0,1-2.52-4,.23.23,0,0,1,.34-.19,3.9,3.9,0,0,0,1,.38,4.31,4.31,0,0,1-1.28-3.07,4.35,4.35,0,0,1,.58-2.17.23.23,0,0,1,.37,0,11.27,11.27,0,0,0,7.76,4.15h0a.16.16,0,0,0,.11-.05.13.13,0,0,0,0-.12,4.52,4.52,0,0,1,.11-1.59A4.21,4.21,0,0,1,18,12.6h0l.08-.12,0-.06.09-.12,0-.05.17-.2.06-.07.09-.09.08-.09.12-.11.11-.1.08-.06.11-.09.07,0,.18-.13.07,0,.15-.09.06,0,.21-.1,0,0L20,10.9l.06,0,.23-.08a4.6,4.6,0,0,1,1.36-.22,4.34,4.34,0,0,1,2.85,1.08.55.55,0,0,0,.37.14.3.3,0,0,0,.13,0,7.77,7.77,0,0,0,2.11-.87.23.23,0,0,1,.33.27A4.27,4.27,0,0,1,26.29,13a8,8,0,0,0,1.38-.46A.23.23,0,0,1,28,12.85Z"/></svg>