<svg id="Layer_1" data-name="Layer 1" xmlns="http://www.w3.org/2000/svg" viewBox="0 0 36 36"><defs><style>.cls-1{fill:#afc267;}</style></defs><title>Artboard 16 copy 5</title><path class="cls-1" d="M31.15,0H4.85A4.85,4.85,0,0,0,0,4.85v26.3A4.85,4.85,0,0,0,4.85,36h26.3A4.85,4.85,0,0,0,36,31.15h0V4.85A4.85,4.85,0,0,0,31.15,0Zm0,10.91a11.86,11.86,0,0,1-.73,1,10.85,10.85,0,0,1-1.53,1.5,1,1,0,0,0-.25.31,1,1,0,0,0-.11.44v.09a15.88,15.88,0,0,1-1,5.51,16,16,0,0,1-3,5,14.71,14.71,0,0,1-2,1.92,14.94,14.94,0,0,1-2.15,1.4h0l-.67.34-.09,0-.31.13h0a16,16,0,0,1-6.29,1.24A15.59,15.59,0,0,1,5,27.75a.45.45,0,0,1-.21-.5.43.43,0,0,1,.42-.32H5.9a10.49,10.49,0,0,0,5.88-1.79,5.69,5.69,0,0,1-4.5-3.88.3.3,0,0,1,.34-.38,5.2,5.2,0,0,0,1,.09H8.7a5.7,5.7,0,0,1-3.32-5.25.3.3,0,0,1,.44-.26,4.89,4.89,0,0,0,1.3.51,5.7,5.7,0,0,1-.93-6.92.3.3,0,0,1,.49,0,14.87,14.87,0,0,0,10.25,5.48h0a.2.2,0,0,0,.16-.07.2.2,0,0,0,.05-.16,6.18,6.18,0,0,1,.13-2.09A5.39,5.39,0,0,1,18,10.59h0c0-.05.07-.1.1-.16l.06-.08.11-.16.05-.06.21-.27.09-.09.11-.12.11-.11L19,9.37l.14-.12.11-.09L19.35,9,19.44,9l.24-.17.09-.05.2-.12.08,0,.27-.14.06,0,.24-.11.08,0L21,8.2a5.88,5.88,0,0,1,1.8-.28,5.68,5.68,0,0,1,3.77,1.42.7.7,0,0,0,.48.18.55.55,0,0,0,.18,0A10.54,10.54,0,0,0,30,8.35a.3.3,0,0,1,.43.35A5.7,5.7,0,0,1,29,11.08a10,10,0,0,0,1.82-.61A.3.3,0,0,1,31.14,10.91Z"/></svg>